<svg width="22" height="21" viewBox="0 0 22 21" fill="none" xmlns="http://www.w3.org/2000/svg">
<path d="M1.16398 8.58221C0.845199 8.28774 1.01836 7.7554 1.44953 7.70434L7.55901 6.98049C7.73474 6.95968 7.88738 6.84945 7.96149 6.68894L10.5384 1.10852C10.7203 0.71469 11.2808 0.714615 11.4626 1.10845L14.0395 6.68882C14.1136 6.84933 14.2653 6.95986 14.441 6.98067L20.5508 7.70434C20.982 7.7554 21.1547 8.2879 20.8359 8.58237L16.3195 12.7551C16.1896 12.8751 16.1317 13.0538 16.1662 13.2271L17.3649 19.2547C17.4495 19.6801 16.9962 20.0097 16.6174 19.7979L11.249 16.7954C11.0946 16.7091 10.907 16.7095 10.7526 16.7958L5.3836 19.7971C5.00472 20.0089 4.55066 19.6801 4.63528 19.2547L5.83411 13.2275C5.8686 13.0541 5.8109 12.8751 5.68098 12.7551L1.16398 8.58221Z" fill="#FFB23D" stroke="white" stroke-linecap="round" stroke-linejoin="round"/>
</svg>
